<svg xmlns="http://www.w3.org/2000/svg" width="560" height="480" viewBox="0 0 280 240" role="img" aria-label="Concept, 75 minutes remaining">
<rect width="280" height="240" fill="#000000"/>
<line x1="104.0" y1="18.0" x2="104.0" y2="8.0" stroke="#9a9a9a" stroke-width="2" stroke-linecap="round"/>
<line x1="113.4" y1="14.5" x2="114.0" y2="8.5" stroke="#4a4a4a" stroke-width="1.4" stroke-linecap="round"/>
<line x1="122.7" y1="16.0" x2="124.0" y2="10.1" stroke="#4a4a4a" stroke-width="1.4" stroke-linecap="round"/>
<line x1="131.8" y1="18.4" x2="133.7" y2="12.7" stroke="#4a4a4a" stroke-width="1.4" stroke-linecap="round"/>
<line x1="140.6" y1="21.8" x2="143.0" y2="16.3" stroke="#4a4a4a" stroke-width="1.4" stroke-linecap="round"/>
<line x1="147.0" y1="29.5" x2="152.0" y2="20.9" stroke="#9a9a9a" stroke-width="2" stroke-linecap="round"/>
<line x1="156.9" y1="31.2" x2="160.4" y2="26.3" stroke="#4a4a4a" stroke-width="1.4" stroke-linecap="round"/>
<line x1="164.2" y1="37.1" x2="168.2" y2="32.7" stroke="#4a4a4a" stroke-width="1.4" stroke-linecap="round"/>
<line x1="170.9" y1="43.8" x2="175.3" y2="39.8" stroke="#4a4a4a" stroke-width="1.4" stroke-linecap="round"/>
<line x1="176.8" y1="51.1" x2="181.7" y2="47.6" stroke="#4a4a4a" stroke-width="1.4" stroke-linecap="round"/>
<line x1="178.5" y1="61.0" x2="187.1" y2="56.0" stroke="#9a9a9a" stroke-width="2" stroke-linecap="round"/>
<line x1="186.2" y1="67.4" x2="191.7" y2="65.0" stroke="#4a4a4a" stroke-width="1.4" stroke-linecap="round"/>
<line x1="189.6" y1="76.2" x2="195.3" y2="74.3" stroke="#4a4a4a" stroke-width="1.4" stroke-linecap="round"/>
<line x1="192.0" y1="85.3" x2="197.9" y2="84.0" stroke="#4a4a4a" stroke-width="1.4" stroke-linecap="round"/>
<line x1="193.5" y1="94.6" x2="199.5" y2="94.0" stroke="#4a4a4a" stroke-width="1.4" stroke-linecap="round"/>
<line x1="190.0" y1="104.0" x2="200.0" y2="104.0" stroke="#9a9a9a" stroke-width="2" stroke-linecap="round"/>
<line x1="193.5" y1="113.4" x2="199.5" y2="114.0" stroke="#4a4a4a" stroke-width="1.4" stroke-linecap="round"/>
<line x1="192.0" y1="122.7" x2="197.9" y2="124.0" stroke="#4a4a4a" stroke-width="1.4" stroke-linecap="round"/>
<line x1="189.6" y1="131.8" x2="195.3" y2="133.7" stroke="#4a4a4a" stroke-width="1.4" stroke-linecap="round"/>
<line x1="186.2" y1="140.6" x2="191.7" y2="143.0" stroke="#4a4a4a" stroke-width="1.4" stroke-linecap="round"/>
<line x1="178.5" y1="147.0" x2="187.1" y2="152.0" stroke="#9a9a9a" stroke-width="2" stroke-linecap="round"/>
<line x1="176.8" y1="156.9" x2="181.7" y2="160.4" stroke="#4a4a4a" stroke-width="1.4" stroke-linecap="round"/>
<line x1="170.9" y1="164.2" x2="175.3" y2="168.2" stroke="#4a4a4a" stroke-width="1.4" stroke-linecap="round"/>
<line x1="164.2" y1="170.9" x2="168.2" y2="175.3" stroke="#4a4a4a" stroke-width="1.4" stroke-linecap="round"/>
<line x1="156.9" y1="176.8" x2="160.4" y2="181.7" stroke="#4a4a4a" stroke-width="1.4" stroke-linecap="round"/>
<line x1="147.0" y1="178.5" x2="152.0" y2="187.1" stroke="#9a9a9a" stroke-width="2" stroke-linecap="round"/>
<line x1="140.6" y1="186.2" x2="143.0" y2="191.7" stroke="#4a4a4a" stroke-width="1.4" stroke-linecap="round"/>
<line x1="131.8" y1="189.6" x2="133.7" y2="195.3" stroke="#4a4a4a" stroke-width="1.4" stroke-linecap="round"/>
<line x1="122.7" y1="192.0" x2="124.0" y2="197.9" stroke="#4a4a4a" stroke-width="1.4" stroke-linecap="round"/>
<line x1="113.4" y1="193.5" x2="114.0" y2="199.5" stroke="#4a4a4a" stroke-width="1.4" stroke-linecap="round"/>
<line x1="104.0" y1="190.0" x2="104.0" y2="200.0" stroke="#9a9a9a" stroke-width="2" stroke-linecap="round"/>
<line x1="94.6" y1="193.5" x2="94.0" y2="199.5" stroke="#4a4a4a" stroke-width="1.4" stroke-linecap="round"/>
<line x1="85.3" y1="192.0" x2="84.0" y2="197.9" stroke="#4a4a4a" stroke-width="1.4" stroke-linecap="round"/>
<line x1="76.2" y1="189.6" x2="74.3" y2="195.3" stroke="#4a4a4a" stroke-width="1.4" stroke-linecap="round"/>
<line x1="67.4" y1="186.2" x2="65.0" y2="191.7" stroke="#4a4a4a" stroke-width="1.4" stroke-linecap="round"/>
<line x1="61.0" y1="178.5" x2="56.0" y2="187.1" stroke="#9a9a9a" stroke-width="2" stroke-linecap="round"/>
<line x1="51.1" y1="176.8" x2="47.6" y2="181.7" stroke="#4a4a4a" stroke-width="1.4" stroke-linecap="round"/>
<line x1="43.8" y1="170.9" x2="39.8" y2="175.3" stroke="#4a4a4a" stroke-width="1.4" stroke-linecap="round"/>
<line x1="37.1" y1="164.2" x2="32.7" y2="168.2" stroke="#4a4a4a" stroke-width="1.4" stroke-linecap="round"/>
<line x1="31.2" y1="156.9" x2="26.3" y2="160.4" stroke="#4a4a4a" stroke-width="1.4" stroke-linecap="round"/>
<line x1="29.5" y1="147.0" x2="20.9" y2="152.0" stroke="#9a9a9a" stroke-width="2" stroke-linecap="round"/>
<line x1="21.8" y1="140.6" x2="16.3" y2="143.0" stroke="#4a4a4a" stroke-width="1.4" stroke-linecap="round"/>
<line x1="18.4" y1="131.8" x2="12.7" y2="133.7" stroke="#4a4a4a" stroke-width="1.4" stroke-linecap="round"/>
<line x1="16.0" y1="122.7" x2="10.1" y2="124.0" stroke="#4a4a4a" stroke-width="1.4" stroke-linecap="round"/>
<line x1="14.5" y1="113.4" x2="8.5" y2="114.0" stroke="#4a4a4a" stroke-width="1.4" stroke-linecap="round"/>
<line x1="18.0" y1="104.0" x2="8.0" y2="104.0" stroke="#9a9a9a" stroke-width="2" stroke-linecap="round"/>
<line x1="14.5" y1="94.6" x2="8.5" y2="94.0" stroke="#4a4a4a" stroke-width="1.4" stroke-linecap="round"/>
<line x1="16.0" y1="85.3" x2="10.1" y2="84.0" stroke="#4a4a4a" stroke-width="1.4" stroke-linecap="round"/>
<line x1="18.4" y1="76.2" x2="12.7" y2="74.3" stroke="#4a4a4a" stroke-width="1.4" stroke-linecap="round"/>
<line x1="21.8" y1="67.4" x2="16.3" y2="65.0" stroke="#4a4a4a" stroke-width="1.4" stroke-linecap="round"/>
<line x1="29.5" y1="61.0" x2="20.9" y2="56.0" stroke="#9a9a9a" stroke-width="2" stroke-linecap="round"/>
<line x1="31.2" y1="51.1" x2="26.3" y2="47.6" stroke="#4a4a4a" stroke-width="1.4" stroke-linecap="round"/>
<line x1="37.1" y1="43.8" x2="32.7" y2="39.8" stroke="#4a4a4a" stroke-width="1.4" stroke-linecap="round"/>
<line x1="43.8" y1="37.1" x2="39.8" y2="32.7" stroke="#4a4a4a" stroke-width="1.4" stroke-linecap="round"/>
<line x1="51.1" y1="31.2" x2="47.6" y2="26.3" stroke="#4a4a4a" stroke-width="1.4" stroke-linecap="round"/>
<line x1="61.0" y1="29.5" x2="56.0" y2="20.9" stroke="#9a9a9a" stroke-width="2" stroke-linecap="round"/>
<line x1="67.4" y1="21.8" x2="65.0" y2="16.3" stroke="#4a4a4a" stroke-width="1.4" stroke-linecap="round"/>
<line x1="76.2" y1="18.4" x2="74.3" y2="12.7" stroke="#4a4a4a" stroke-width="1.4" stroke-linecap="round"/>
<line x1="85.3" y1="16.0" x2="84.0" y2="10.1" stroke="#4a4a4a" stroke-width="1.4" stroke-linecap="round"/>
<line x1="94.6" y1="14.5" x2="94.0" y2="8.5" stroke="#4a4a4a" stroke-width="1.4" stroke-linecap="round"/>
<circle cx="104" cy="104" r="74" fill="#a85c10"/>
<path d="M 104 104 L 104 30 A 74 74 0 0 1 178.0 104.0 Z" fill="#e8871e"/>
<line x1="104" y1="104" x2="182.0" y2="104.0" stroke="#e8871e" stroke-width="3.5" stroke-linecap="round"/>
<circle cx="104" cy="104" r="8" fill="#d8d4cc"/>
<text x="104" y="222" text-anchor="middle" font-family="ui-monospace,'SF Mono',Menlo,Consolas,monospace" font-size="24" fill="#8a8a8a">75</text>
<text x="214" y="52" font-family="Inter,'Helvetica Neue',Arial,sans-serif" font-size="22" font-weight="300" letter-spacing="1.2" fill="#ffffff">BASE</text>
<text x="214" y="86" font-family="ui-monospace,'SF Mono',Menlo,Consolas,monospace" font-size="15" fill="#7b7d93">BLE 2</text>
<text x="214" y="130" font-family="ui-monospace,'SF Mono',Menlo,Consolas,monospace" font-size="16" fill="#ffffff">L 87</text>
<text x="214" y="158" font-family="ui-monospace,'SF Mono',Menlo,Consolas,monospace" font-size="16" fill="#ffffff">R 89</text>
</svg>