<svg xmlns="http://www.w3.org/2000/svg" width="560" height="480" viewBox="0 0 280 240" role="img" aria-label="ring concept, 75 minutes remaining">
<rect width="280" height="240" fill="#000000"/>
<circle cx="107" cy="106" r="92" fill="none" stroke="#242424" stroke-width="5"/>
<circle cx="107" cy="106" r="74" fill="#242424"/>
<circle cx="107" cy="106" r="74" fill="#e8871e"/>
<path d="M 107 14 A 92 92 0 0 1 199.0 106.0" fill="none" stroke="#e8871e" stroke-width="5" stroke-linecap="butt"/>
<circle cx="107.0" cy="23.0" r="1.6" fill="#9a9a9a"/>
<circle cx="148.5" cy="34.1" r="1.6" fill="#9a9a9a"/>
<circle cx="178.9" cy="64.5" r="1.6" fill="#9a9a9a"/>
<circle cx="190.0" cy="106.0" r="1.6" fill="#9a9a9a"/>
<circle cx="178.9" cy="147.5" r="1.6" fill="#9a9a9a"/>
<circle cx="148.5" cy="177.9" r="1.6" fill="#9a9a9a"/>
<circle cx="107.0" cy="189.0" r="1.6" fill="#9a9a9a"/>
<circle cx="65.5" cy="177.9" r="1.6" fill="#9a9a9a"/>
<circle cx="35.1" cy="147.5" r="1.6" fill="#9a9a9a"/>
<circle cx="24.0" cy="106.0" r="1.6" fill="#9a9a9a"/>
<circle cx="35.1" cy="64.5" r="1.6" fill="#9a9a9a"/>
<circle cx="65.5" cy="34.1" r="1.6" fill="#9a9a9a"/>
<line x1="107" y1="106" x2="205.0" y2="106.0" stroke="#ffab52" stroke-width="4" stroke-linecap="round"/>
<circle cx="107" cy="106" r="8" fill="#d8d4cc"/>
<text x="270" y="46" text-anchor="end" font-family="ui-monospace,'SF Mono',Menlo,Consolas,monospace" font-size="32" fill="#8a8a8a">75</text>
<text x="270" y="174" text-anchor="end" font-family="ui-monospace,'SF Mono',Menlo,Consolas,monospace" font-size="20" fill="#7b7d93">B 2</text>
<text x="234" y="208" text-anchor="end" font-family="ui-monospace,'SF Mono',Menlo,Consolas,monospace" font-size="24" fill="#54806c">87</text>
<text x="270" y="208" text-anchor="end" font-family="ui-monospace,'SF Mono',Menlo,Consolas,monospace" font-size="24" fill="#54806c">89</text>
<text x="10" y="234" font-family="Inter,'Helvetica Neue',Arial,sans-serif" font-size="20" fill="#b1e5f0">BASE</text>
<text x="150" y="234" text-anchor="end" font-family="Inter,'Helvetica Neue',Arial,sans-serif" font-size="20" font-weight="600" fill="#3b527c">CMD</text>
<text x="190" y="234" text-anchor="end" font-family="Inter,'Helvetica Neue',Arial,sans-serif" font-size="20" font-weight="600" fill="#3b527c">OPT</text>
<text x="230" y="234" text-anchor="end" font-family="Inter,'Helvetica Neue',Arial,sans-serif" font-size="20" font-weight="600" fill="#3b527c">CTL</text>
<text x="270" y="234" text-anchor="end" font-family="Inter,'Helvetica Neue',Arial,sans-serif" font-size="20" font-weight="600" fill="#3b527c">SFT</text>
</svg>