<svg xmlns="http://www.w3.org/2000/svg" width="560" height="480" viewBox="0 0 280 240" role="img" aria-label="Dial layout, 0 minutes remaining of a 60 minute face">
<rect width="280" height="240" fill="#000000"/>
<circle cx="107.0" cy="10.0" r="1.5" fill="#9a9a9a"/>
<circle cx="155.0" cy="22.9" r="1.5" fill="#9a9a9a"/>
<circle cx="190.1" cy="58.0" r="1.5" fill="#9a9a9a"/>
<circle cx="203.0" cy="106.0" r="1.5" fill="#9a9a9a"/>
<circle cx="190.1" cy="154.0" r="1.5" fill="#9a9a9a"/>
<circle cx="155.0" cy="189.1" r="1.5" fill="#9a9a9a"/>
<circle cx="107.0" cy="202.0" r="1.5" fill="#9a9a9a"/>
<circle cx="59.0" cy="189.1" r="1.5" fill="#9a9a9a"/>
<circle cx="23.9" cy="154.0" r="1.5" fill="#9a9a9a"/>
<circle cx="11.0" cy="106.0" r="1.5" fill="#9a9a9a"/>
<circle cx="23.9" cy="58.0" r="1.5" fill="#9a9a9a"/>
<circle cx="59.0" cy="22.9" r="1.5" fill="#9a9a9a"/>
<circle cx="107" cy="106" r="84" fill="#242424"/>
<line x1="107" y1="106" x2="107.0" y2="18.0" stroke="#e8871e" stroke-width="4" stroke-linecap="round"/>
<circle cx="107" cy="106" r="8" fill="#d8d4cc"/>
<text x="270" y="54" text-anchor="end" font-family="ui-monospace,'SF Mono',Menlo,Consolas,monospace" font-size="32" fill="#8a8a8a">0</text>
<text x="270" y="174" text-anchor="end" font-family="ui-monospace,'SF Mono',Menlo,Consolas,monospace" font-size="20" fill="#7b7d93">B2</text>
<text x="234" y="208" text-anchor="end" font-family="ui-monospace,'SF Mono',Menlo,Consolas,monospace" font-size="24" fill="#54806c">87</text>
<text x="270" y="208" text-anchor="end" font-family="ui-monospace,'SF Mono',Menlo,Consolas,monospace" font-size="24" fill="#54806c">89</text>
<text x="10" y="234" font-family="Inter,'Helvetica Neue',Arial,sans-serif" font-size="20" fill="#b1e5f0">BASE</text>
<text x="150" y="234" text-anchor="end" font-family="Inter,'Helvetica Neue',Arial,sans-serif" font-size="20" font-weight="600" fill="#3b527c">CMD</text>
<text x="190" y="234" text-anchor="end" font-family="Inter,'Helvetica Neue',Arial,sans-serif" font-size="20" font-weight="600" fill="#3b527c">OPT</text>
<text x="230" y="234" text-anchor="end" font-family="Inter,'Helvetica Neue',Arial,sans-serif" font-size="20" font-weight="600" fill="#3b527c">CTL</text>
<text x="270" y="234" text-anchor="end" font-family="Inter,'Helvetica Neue',Arial,sans-serif" font-size="20" font-weight="600" fill="#3b527c">SFT</text>
</svg>