<svg xmlns="http://www.w3.org/2000/svg" width="560" height="480" viewBox="0 0 280 240" role="img" aria-label="Operator status screen showing a 21 minute focus block remaining">
<rect width="280" height="240" fill="#000000"/>
<text x="25" y="24" font-family="Inter,'Helvetica Neue',Arial,sans-serif" font-size="15" font-weight="600" fill="#b1e5f0">CMD</text>
<text x="83" y="24" font-family="Inter,'Helvetica Neue',Arial,sans-serif" font-size="15" font-weight="600" fill="#3b527c">OPT</text>
<text x="141" y="24" font-family="Inter,'Helvetica Neue',Arial,sans-serif" font-size="15" font-weight="600" fill="#3b527c">CTRL</text>
<text x="199" y="24" font-family="Inter,'Helvetica Neue',Arial,sans-serif" font-size="15" font-weight="600" fill="#3b527c">SHFT</text>
<rect x="11" y="42" width="8" height="90" rx="1" fill="#e8871e"/>
<rect x="21" y="42" width="8" height="90" rx="1" fill="#e8871e"/>
<rect x="31" y="42" width="8" height="90" rx="1" fill="#e8871e"/>
<rect x="41" y="42" width="8" height="90" rx="1" fill="#e8871e"/>
<rect x="51" y="42" width="8" height="90" rx="1" fill="#e8871e"/>
<rect x="61" y="42" width="8" height="90" rx="1" fill="#e8871e"/>
<rect x="71" y="42" width="8" height="90" rx="1" fill="#e8871e"/>
<rect x="81" y="42" width="8" height="90" rx="1" fill="#e8871e"/>
<rect x="91" y="42" width="8" height="90" rx="1" fill="#e8871e"/>
<rect x="101" y="42" width="8" height="90" rx="1" fill="#e8871e"/>
<rect x="111" y="42" width="8" height="90" rx="1" fill="#e8871e"/>
<rect x="121" y="42" width="8" height="90" rx="1" fill="#e8871e"/>
<rect x="131" y="42" width="8" height="90" rx="1" fill="#e8871e"/>
<rect x="141" y="42" width="8" height="90" rx="1" fill="#e8871e"/>
<rect x="151" y="42" width="8" height="90" rx="1" fill="#e8871e"/>
<rect x="161" y="42" width="8" height="90" rx="1" fill="#e8871e"/>
<rect x="171" y="42" width="8" height="90" rx="1" fill="#e8871e"/>
<rect x="181" y="42" width="8" height="90" rx="1" fill="#e8871e"/>
<rect x="191" y="42" width="8" height="90" rx="1" fill="#e8871e"/>
<rect x="201" y="42" width="8" height="90" rx="1" fill="#242424"/>
<rect x="211" y="42" width="8" height="90" rx="1" fill="#242424"/>
<rect x="221" y="42" width="8" height="90" rx="1" fill="#242424"/>
<rect x="231" y="42" width="8" height="90" rx="1" fill="#242424"/>
<rect x="241" y="42" width="8" height="90" rx="1" fill="#242424"/>
<rect x="251" y="42" width="8" height="90" rx="1" fill="#242424"/>
<rect x="261" y="42" width="8" height="90" rx="1" fill="#242424"/>
<rect x="3" y="33" width="46" height="42" fill="#000000"/>
<text x="9" y="64" font-family="ui-monospace,'SF Mono',Menlo,Consolas,monospace" font-size="32" font-weight="500" fill="#e8871e">21</text>
<text x="272" y="134" text-anchor="end" font-family="Inter,'Helvetica Neue',Arial,sans-serif" font-size="30" font-weight="300" letter-spacing="1.5" fill="#ffffff">BASE</text>
<rect x="10" y="142" width="34" height="6" rx="2" fill="#e0e0e0"/>
<rect x="47" y="142" width="34" height="6" rx="2" fill="#575757"/>
<rect x="84" y="142" width="34" height="6" rx="2" fill="#575757"/>
<rect x="121" y="142" width="34" height="6" rx="2" fill="#575757"/>
<rect x="158" y="142" width="34" height="6" rx="2" fill="#575757"/>
<rect x="195" y="142" width="34" height="6" rx="2" fill="#575757"/>
<rect x="232" y="142" width="34" height="6" rx="2" fill="#575757"/>
<circle cx="33" cy="192" r="18" fill="none" stroke="#2a4036" stroke-width="6"/>
<path d="M 33 174 A 18 18 0 1 1 19.9 179.7" fill="none" stroke="#54806c" stroke-width="6" stroke-linecap="round"/>
<text x="33" y="197" text-anchor="middle" font-family="ui-monospace,'SF Mono',Menlo,Consolas,monospace" font-size="14" fill="#ffffff">87</text>
<circle cx="95" cy="192" r="18" fill="none" stroke="#2a4036" stroke-width="6"/>
<path d="M 95 174 A 18 18 0 1 1 83.5 178.1" fill="none" stroke="#54806c" stroke-width="6" stroke-linecap="round"/>
<text x="95" y="197" text-anchor="middle" font-family="ui-monospace,'SF Mono',Menlo,Consolas,monospace" font-size="14" fill="#ffffff">89</text>
<rect x="148" y="170" width="56" height="29" rx="6" fill="#4F4F40"/>
<text x="176" y="190" text-anchor="middle" font-family="Inter,'Helvetica Neue',Arial,sans-serif" font-size="15" font-weight="600" fill="#7b7d93">USB</text>
<rect x="206" y="170" width="56" height="29" rx="6" fill="#569FA7"/>
<text x="234" y="190" text-anchor="middle" font-family="Inter,'Helvetica Neue',Arial,sans-serif" font-size="15" font-weight="600" fill="#000000">BLE</text>
<rect x="148" y="203" width="21" height="29" rx="6" fill="#353640"/>
<text x="158" y="223" text-anchor="middle" font-family="ui-monospace,'SF Mono',Menlo,Consolas,monospace" font-size="14" fill="#ffffff">1</text>
<rect x="171" y="203" width="21" height="29" rx="6" fill="#7b7d93"/>
<text x="181" y="223" text-anchor="middle" font-family="ui-monospace,'SF Mono',Menlo,Consolas,monospace" font-size="14" fill="#ffffff">2</text>
<rect x="194" y="203" width="21" height="29" rx="6" fill="#353640"/>
<text x="204" y="223" text-anchor="middle" font-family="ui-monospace,'SF Mono',Menlo,Consolas,monospace" font-size="14" fill="#ffffff">3</text>
<rect x="217" y="203" width="21" height="29" rx="6" fill="#353640"/>
<text x="227" y="223" text-anchor="middle" font-family="ui-monospace,'SF Mono',Menlo,Consolas,monospace" font-size="14" fill="#ffffff">4</text>
<rect x="240" y="203" width="21" height="29" rx="6" fill="#353640"/>
<text x="250" y="223" text-anchor="middle" font-family="ui-monospace,'SF Mono',Menlo,Consolas,monospace" font-size="14" fill="#ffffff">5</text>
</svg>